<svg width="13" height="12" viewBox="0 0 13 12" fill="none" xmlns="http://www.w3.org/2000/svg">
<path d="M0.6 1.4C0.2675 1.4 0 1.6675 0 2C0 2.3325 0.2675 2.6 0.6 2.6H2.8925C3.1475 3.4125 3.905 4 4.8 4C5.695 4 6.4525 3.4125 6.7075 2.6H12.2C12.5325 2.6 12.8 2.3325 12.8 2C12.8 1.6675 12.5325 1.4 12.2 1.4H6.7075C6.4525 0.5875 5.695 0 4.8 0C3.905 0 3.1475 0.5875 2.8925 1.4H0.6ZM0.6 5.4C0.2675 5.4 0 5.6675 0 6C0 6.3325 0.2675 6.6 0.6 6.6H6.8925C7.1475 7.4125 7.905 8 8.8 8C9.695 8 10.4525 7.4125 10.7075 6.6H12.2C12.5325 6.6 12.8 6.3325 12.8 6C12.8 5.6675 12.5325 5.4 12.2 5.4H10.7075C10.4525 4.5875 9.695 4 8.8 4C7.905 4 7.1475 4.5875 6.8925 5.4H0.6ZM0.6 9.4C0.2675 9.4 0 9.6675 0 10C0 10.3325 0.2675 10.6 0.6 10.6H2.0925C2.3475 11.4125 3.105 12 4 12C4.895 12 5.6525 11.4125 5.9075 10.6H12.2C12.5325 10.6 12.8 10.3325 12.8 10C12.8 9.6675 12.5325 9.4 12.2 9.4H5.9075C5.6525 8.5875 4.895 8 4 8C3.105 8 2.3475 8.5875 2.0925 9.4H0.6ZM4 10.8C3.78783 10.8 3.58434 10.7157 3.43431 10.5657C3.28429 10.4157 3.2 10.2122 3.2 10C3.2 9.78783 3.28429 9.58434 3.43431 9.43431C3.58434 9.28429 3.78783 9.2 4 9.2C4.21217 9.2 4.41566 9.28429 4.56569 9.43431C4.71571 9.58434 4.8 9.78783 4.8 10C4.8 10.2122 4.71571 10.4157 4.56569 10.5657C4.41566 10.7157 4.21217 10.8 4 10.8ZM8.8 6.8C8.58783 6.8 8.38434 6.71571 8.23431 6.56569C8.08429 6.41566 8 6.21217 8 6C8 5.78783 8.08429 5.58434 8.23431 5.43431C8.38434 5.28429 8.58783 5.2 8.8 5.2C9.01217 5.2 9.21566 5.28429 9.36569 5.43431C9.51571 5.58434 9.6 5.78783 9.6 6C9.6 6.21217 9.51571 6.41566 9.36569 6.56569C9.21566 6.71571 9.01217 6.8 8.8 6.8ZM4 2C4 1.78783 4.08429 1.58434 4.23431 1.43431C4.38434 1.28429 4.58783 1.2 4.8 1.2C5.01217 1.2 5.21566 1.28429 5.36569 1.43431C5.51571 1.58434 5.6 1.78783 5.6 2C5.6 2.21217 5.51571 2.41566 5.36569 2.56569C5.21566 2.71571 5.01217 2.8 4.8 2.8C4.58783 2.8 4.38434 2.71571 4.23431 2.56569C4.08429 2.41566 4 2.21217 4 2Z" fill="#717350"/>
</svg>
