<svg width="25" height="26" viewBox="0 0 25 26" fill="none" xmlns="http://www.w3.org/2000/svg">
<path d="M17.527 0.00130632C17.202 0.00805982 16.8731 0.0354053 16.5409 0.0826863C14.9738 0.303361 13.5945 0.965386 12.5135 2.16334C11.495 3.29824 10.9776 4.65414 10.8833 6.18294C10.8204 7.28079 10.9557 8.32144 11.3475 9.28734C9.32795 9.28539 7.3084 9.27383 5.28885 9.28864C4.94409 9.28864 4.86577 9.1782 4.86577 8.84716V0.884656C4.86577 0.569406 4.71412 0.411716 4.41116 0.411716C3.31396 0.411716 2.20181 0.443215 1.08901 0.411716C0.712916 0.395934 0.634396 0.522021 0.634396 0.868796V6.8592H0.650061V12.8496C0.650061 13.3225 0.665791 13.3225 1.12027 13.3225H3.71312C2.82652 13.7132 2.04067 14.2891 1.39262 15.1087C0.201821 16.6219 -0.158929 18.3873 0.060771 20.2795C0.483921 23.7635 3.36732 26.1912 6.82727 25.9858C8.33137 25.8913 9.71067 25.4656 10.8547 24.4252C11.2713 24.0394 11.6119 23.6237 11.894 23.1856C12.1714 23.5868 12.5031 23.9572 12.8957 24.2906C14.6039 25.7564 16.5786 26.2452 18.7723 25.8669C24.1634 24.9523 25.5128 19.1654 23.2229 15.6034V15.619C22.3285 14.2267 21.1156 13.411 19.6986 13.0002C21.0278 12.617 22.1705 11.9108 23.0409 10.7518C24.2317 9.14374 24.5924 7.33089 24.2473 5.37634L24.2631 5.39219C23.9497 3.57934 23.0561 2.12919 21.5052 1.12039C20.2702 0.326085 18.9318 -0.0307647 17.5233 -0.00151468L17.527 0.00130632ZM17.4437 3.86101C17.8065 3.8662 18.1769 3.94908 18.5474 4.10274C19.5348 4.49684 20.0203 5.31629 20.1614 6.35694C20.177 6.51457 20.1772 6.6564 20.1928 6.81402C20.1928 8.21672 19.4408 9.30482 18.2493 9.63567H18.265C16.4788 10.1243 14.8486 8.89467 14.7699 7.01877C14.7386 6.04117 14.9739 5.17407 15.7261 4.51237C16.255 4.05919 16.8392 3.85191 17.4437 3.86101ZM12.3412 10.9395C13.1979 11.9763 14.2444 12.6289 15.4333 12.9818C14.0767 13.3751 12.9204 14.12 12.0377 15.3244C11.9961 15.382 11.9577 15.4405 11.9182 15.4987C11.3348 14.5439 10.561 13.7925 9.5613 13.3017C10.3322 13.2985 11.1031 13.2947 11.8714 13.2947C12.3259 13.2947 12.3414 13.2789 12.3414 12.8217L12.3412 10.9395ZM6.72262 16.1272C7.72752 16.1116 8.44707 16.6381 8.94692 17.5247C9.05664 17.7138 9.1349 17.6822 9.27595 17.6034C9.9643 17.2389 10.6611 16.8741 11.354 16.5101C11.1247 17.025 10.9693 17.5592 10.8789 18.1085H6.67472C6.47101 18.1085 6.39255 18.1714 6.39255 18.392V21.2137C6.39255 21.4501 6.47088 21.5131 6.70598 21.5131H8.93093C8.93223 21.6169 8.87841 21.6752 8.82167 21.7181C7.94417 22.5852 6.45502 22.7899 5.37407 22.191C4.01037 21.45 3.41497 19.6528 4.01037 18.0765C4.44918 16.926 5.26422 16.2481 6.51742 16.1376C6.58697 16.1317 6.65561 16.1282 6.72262 16.1272ZM17.3956 16.5461C18.8737 16.5215 20.1471 17.7219 20.1107 19.4711C20.1107 20.7639 19.4838 21.7883 18.4493 22.2141C16.6475 22.9395 14.7664 21.6938 14.6884 19.7077C14.6414 18.4941 15.0019 17.4379 16.1301 16.8704C16.5517 16.6566 16.9816 16.553 17.3956 16.5461Z" fill="#13343B"/>
</svg>
